<?xml version="1.0" encoding="utf-8"?><svg width="750px" height="750px" viewBox="0 0 750 750"  style="font-family: Poppins, Arial, sans-serif;font-size: 16px;" version="1.1" xmlns="http://www.w3.org/2000/svg" xmlns:xlink="http://www.w3.org/1999/xlink"><defs xmlns="http://www.w3.org/2000/svg"><clipPath id="id-227"><rect width="750" height="750"/></clipPath><filter id="filter-id-256" filterUnits="objectBoundingBox" width="200%" height="200%" x="-50%" y="-50%"/><filter id="filter-id-277" filterUnits="objectBoundingBox" width="200%" height="200%" x="-50%" y="-50%"/><clipPath id="id-361"><path d=" M0,-284  a284,284,0,0,1,0,568 a284,284,0,0,1,0,-568 M0,-2.84  a2.84,2.84,0,0,0,0,5.68 a2.84,2.84,0,0,0,0,-5.68 L0,-2.84 "/></clipPath><clipPath id="id-450"><path d=" M0,-284  a284,284,0,0,1,0,568 a284,284,0,0,1,0,-568" r="0"/></clipPath><filter id="filter-id-232" filterUnits="objectBoundingBox" width="200%" height="200%" x="-50%" y="-50%"><feGaussianBlur result="blurOut" in="SourceGraphic" stdDeviation="1.5"/><feOffset result="offsetBlur" dx="1" dy="1"/><feFlood flood-color="#000000" flood-opacity="0.5"/><feComposite in2="offsetBlur" operator="in"/><feMerge><feMergeNode/><feMergeNode in="SourceGraphic"/></feMerge></filter><filter id="filter-id-366" filterUnits="objectBoundingBox" width="200%" height="200%" x="-50%" y="-50%"><feGaussianBlur result="blurOut" in="SourceGraphic" stdDeviation="0"/><feOffset result="offsetBlur" dx="0" dy="0"/><feFlood flood-color="#000000" flood-opacity="0.5"/><feComposite in2="offsetBlur" operator="in"/><feMerge><feMergeNode/><feMergeNode in="SourceGraphic"/></feMerge></filter><path d=" M-226.7293,180.8143  a290,290,0,0,1,453.4587,-361.6286 a290,290,0,0,1,-453.4587,361.6286" id="text-path-id-313"/><path d=" M0,-290  a290,290,0,0,1,0,580 a290,290,0,0,1,0,-580" id="text-path-id-321"/><path d=" M282.7293,64.5304  a290,290,0,0,1,-565.4585,-129.0607 a290,290,0,0,1,565.4585,129.0607" id="text-path-id-329"/><path d=" M125.8295,261.2794  a290,290,0,0,1,-251.6591,-522.5588 a290,290,0,0,1,251.6591,522.5588" id="text-path-id-337"/></defs><g xmlns="http://www.w3.org/2000/svg"><g fill="#ffffff" fill-opacity="0"><rect width="750" height="750"/></g><g><g role="region" clip-path="url(#id-227)" opacity="1" aria-label="Chart"><g transform="translate(0,20)"><g><g><g><g><g><g><g style="touch-action: none; user-select: none; -webkit-user-drag: none;"><g fill="#ffffff" fill-opacity="0"><rect width="750" height="710"/></g><g><g transform="translate(375,355)"><g><g opacity="0"/><g><g/></g><g aria-hidden="true"><g><g font-size="14"><g><g><g><g stroke="#000000" stroke-opacity="0.05" fill="none"><path d=" M0,0  L0,-309 "/></g><g stroke="#000000" stroke-opacity="0.05" fill="none"><path d=" M0,0  L134.0726,-278.3982 "/></g><g stroke="#000000" stroke-opacity="0.05" fill="none"><path d=" M0,0  L241.5894,-192.654 "/></g><g stroke="#000000" stroke-opacity="0.05" fill="none"><path d=" M0,0  L301.2546,-68.7509 "/></g><g stroke="#000000" stroke-opacity="0.05" fill="none"><path d=" M0,0  L301.2546,68.7509 "/></g><g stroke="#000000" stroke-opacity="0.05" fill="none"><path d=" M0,0  L241.5894,192.654 "/></g><g stroke="#000000" stroke-opacity="0.05" fill="none"><path d=" M0,0  L134.0726,278.3982 "/></g><g stroke="#000000" stroke-opacity="0.05" fill="none"><path d=" M0,0  L0,309 "/></g><g stroke="#000000" stroke-opacity="0.05" fill="none"><path d=" M0,0  L-134.0726,278.3982 "/></g><g stroke="#000000" stroke-opacity="0.05" fill="none"><path d=" M0,0  L-241.5894,192.654 "/></g><g stroke="#000000" stroke-opacity="0.05" fill="none"><path d=" M0,0  L-301.2546,68.7509 "/></g><g stroke="#000000" stroke-opacity="0.05" fill="none"><path d=" M0,0  L-301.2546,-68.7509 "/></g><g stroke="#000000" stroke-opacity="0.05" fill="none"><path d=" M0,0  L-241.5894,-192.654 "/></g><g stroke="#000000" stroke-opacity="0.05" fill="none"><path d=" M0,0  L-134.0726,-278.3982 "/></g><g stroke="#000000" stroke-opacity="0.05" fill="none"><path d=" M0,0  L0,-309 "/></g><g fill="#773815" fill-opacity="1" aria-labelledby="id-309-title" style="cursor: pointer;"><path d=" M0,-283.999  L0,-314  a314,314,0,0,1,306.1288,383.8655 L276.8798,63.1902  a283.999,283.999,0,0,0,-276.8798,-347.1892 L0,-283.999 "/><title id="id-309-title">Clicca per zoom</title></g><g stroke="#000000" stroke-opacity="0.05" fill="none" display="none"><path/></g><g fill="#b8f2a8" fill-opacity="1" aria-labelledby="id-317-title" style="cursor: pointer;"><path d=" M276.8798,63.1902  L306.1288,69.8655  a314,314,0,0,1,-612.2575,0 L-276.8798,63.1902  a283.999,283.999,0,0,0,553.7596,0 L276.8798,63.1902 "/><title id="id-317-title">Clicca per zoom</title></g><g stroke="#000000" stroke-opacity="0.05" fill="none" display="none"><path/></g><g fill="#d74de6" fill-opacity="1" aria-labelledby="id-325-title" style="cursor: pointer;"><path d=" M-276.8798,63.1902  L-306.1288,69.8655  a314,314,0,0,1,60.6288,-265.6351 L-222.0438,-177.0649  a283.999,283.999,0,0,0,-54.836,240.2551 L-276.8798,63.1902 "/><title id="id-325-title">Clicca per zoom</title></g><g stroke="#000000" stroke-opacity="0.05" fill="none" display="none"><path/></g><g fill="#0000ff" fill-opacity="1" aria-labelledby="id-333-title" style="cursor: pointer;"><path d=" M-222.0438,-177.0649  L-245.5,-195.7697  a314,314,0,0,1,245.5,-118.2303 L0,-283.999  a283.999,283.999,0,0,0,-222.0438,106.9341 L-222.0438,-177.0649 "/><title id="id-333-title">Clicca per zoom</title></g><g stroke="#000000" stroke-opacity="0.05" fill="none" display="none"><path/></g><g fill-opacity="0" stroke-opacity="0" stroke="#000000" stroke-width="1"><path d=" M0,-284  L0,-289 "/></g><g fill-opacity="0" stroke-opacity="0" stroke="#000000" stroke-width="1"><path d=" M276.8812,63.1885  L281.7559,64.301 "/></g><g fill-opacity="0" stroke-opacity="0" stroke="#000000" stroke-width="1"><path d=" M-276.8812,63.1885  L-281.7559,64.301 "/></g><g fill-opacity="0" stroke-opacity="0" stroke="#000000" stroke-width="1"><path d=" M-222.0433,-177.0671  L-225.9525,-180.1845 "/></g></g></g><g fill="#000000" aria-label="L" fill-opacity="0" opacity="0" stroke-opacity="0" style="pointer-events: none;" transform="translate(3.5,339) rotate(180)"><g style="user-select: none;"><text x="0" y="19.5" dy="-5.265"><tspan>L</tspan></text></g></g><g fill="#000000" transform="translate(68.122,-332.16999999999996) rotate(12.857)"><g style="user-select: none;"><text x="0" y="19.5" dy="-5.265"><tspan>D1</tspan></text></g></g><g fill="#000000" transform="translate(204.33,-270.65) rotate(38.572)"><g style="user-select: none;"><text x="0" y="19.5" dy="-5.265"><tspan>D2</tspan></text></g></g><g fill="#000000" transform="translate(301.31,-155.639) rotate(64.287)"><g style="user-select: none;"><text x="0" y="19.5" dy="-5.265"><tspan>D3</tspan></text></g></g><g fill="#000000" transform="translate(339,-9.5) rotate(90)"><g style="user-select: none;"><text x="0" y="19.5" dy="-5.265"><tspan>D4</tspan></text></g></g><g fill="#000000" transform="translate(309.55400000000003,138.52100000000002) rotate(115.713)"><g style="user-select: none;"><text x="0" y="19.5" dy="-5.265"><tspan>D5</tspan></text></g></g><g fill="#000000" transform="translate(218.793,259.116) rotate(141.428)"><g style="user-select: none;"><text x="0" y="19.5" dy="-5.265"><tspan>D6</tspan></text></g></g><g fill="#000000" transform="translate(84.208,328.498) rotate(167.143)"><g style="user-select: none;"><text x="0" y="19.5" dy="-5.265"><tspan>D7</tspan></text></g></g><g fill="#000000" transform="translate(-66.172,332.61499999999995) rotate(192.857)"><g style="user-select: none;"><text x="0" y="19.5" dy="-5.265"><tspan>D8</tspan></text></g></g><g fill="#000000" transform="translate(-203.93900000000002,270.962) rotate(218.572)"><g style="user-select: none;"><text x="0" y="19.5" dy="-5.265"><tspan>D9</tspan></text></g></g><g fill="#000000" transform="translate(-300.226,157.89200000000002) rotate(244.287)"><g style="user-select: none;"><text x="0" y="19.5" dy="-5.265"><tspan>D10</tspan></text></g></g><g fill="#000000" transform="translate(-339,9.5) rotate(270)"><g style="user-select: none;"><text x="0" y="19.5" dy="-5.265"><tspan>D11</tspan></text></g></g><g fill="#000000" transform="translate(-310.421,-136.71900000000002) rotate(-64.287)"><g style="user-select: none;"><text x="0" y="19.5" dy="-5.265"><tspan>D12</tspan></text></g></g><g fill="#000000" transform="translate(-220.35700000000003,-257.86899999999997) rotate(-38.572)"><g style="user-select: none;"><text x="0" y="19.5" dy="-5.265"><tspan>D13</tspan></text></g></g><g fill="#000000" transform="translate(-87.133,-327.83099999999996) rotate(-12.857000000000028)"><g style="user-select: none;"><text x="0" y="19.5" dy="-5.265"><tspan>D14</tspan></text></g></g><g fill="#000000" display="none" transform="translate(70.983,-311.002) rotate(12.857000000000028)"><g display="none"/></g><g fill="#ffffff" font-size="18" style="pointer-events: none;"><g style="user-select: none;"><text dy="0" text-anchor="middle"><textPath xmlns:xlink="http://www.w3.org/1999/xlink" xlink:href="#text-path-id-313" path=" M-226.7293,180.8143  a290,290,0,0,1,453.4587,-361.6286 a290,290,0,0,1,-453.4587,361.6286" startOffset="50%">S1</textPath></text></g></g><g fill="#ffffff" font-size="18" style="pointer-events: none;"><g style="user-select: none;"><text dy="0" text-anchor="middle"><textPath xmlns:xlink="http://www.w3.org/1999/xlink" xlink:href="#text-path-id-321" path=" M0,-290  a290,290,0,0,1,0,580 a290,290,0,0,1,0,-580" startOffset="50%">S2</textPath></text></g></g><g fill="#ffffff" font-size="18" style="pointer-events: none;"><g style="user-select: none;"><text dy="0" text-anchor="middle"><textPath xmlns:xlink="http://www.w3.org/1999/xlink" xlink:href="#text-path-id-329" path=" M282.7293,64.5304  a290,290,0,0,1,-565.4585,-129.0607 a290,290,0,0,1,565.4585,129.0607" startOffset="50%">S3</textPath></text></g></g><g fill="#ffffff" font-size="18" style="pointer-events: none;"><g style="user-select: none;"><text dy="0" text-anchor="middle"><textPath xmlns:xlink="http://www.w3.org/1999/xlink" xlink:href="#text-path-id-337" path=" M125.8295,261.2794  a290,290,0,0,1,-251.6591,-522.5588 a290,290,0,0,1,251.6591,522.5588" startOffset="50%">S4</textPath></text></g></g><g><g/></g></g></g><g fill="#000000"><g display="none"/></g><g stroke="#000000" stroke-opacity="0.15" fill="none" display="none"><path transform="translate(-0.5,-0.5)"/></g><g stroke="#ffffff" stroke-opacity="1" fill="none" stroke-width="2" style="pointer-events: none;"><path d=" M0,-284  a284,284,0,0,1,0,568 a284,284,0,0,1,0,-568" transform="translate(-0.5,-0.5)"/></g></g></g><g><g/></g><g aria-hidden="true"><g><g><g><g fill="#000000" aria-label="L" fill-opacity="0" opacity="0" stroke-opacity="0" style="pointer-events: none;" transform="translate(0,-143.4)"><g transform="translate(-8,-11.5)" style="user-select: none;"><text x="0" y="22.5" dy="-6.075"><tspan>10</tspan></text></g></g><g><g><g stroke="#000000" stroke-opacity="0.15" fill="none" display="none"><path d=" M0,0  a0,0,0,0,1,0,0 a0,0,0,0,1,0,0" transform="translate(-0.5,-0.5)"/></g><g stroke="#000000" stroke-opacity="0.15" fill="none" display="none"><path d=" M0,0  a0,0,0,0,1,0,0 a0,0,0,0,1,0,0" transform="translate(-0.5,-0.5)"/></g><g stroke="#000000" stroke-opacity="0.15" fill="none"><path d=" M0,-2.8  a2.8,2.8,0,0,1,0,5.6 a2.8,2.8,0,0,1,0,-5.6" transform="translate(-0.5,-0.5)"/></g><g stroke="#000000" stroke-opacity="0.15" fill="none"><path d=" M0,-34.1  a34.1,34.1,0,0,1,0,68.2 a34.1,34.1,0,0,1,0,-68.2" transform="translate(-0.5,-0.5)"/></g><g stroke="#000000" stroke-opacity="0.15" fill="none"><path d=" M0,-65.3  a65.3,65.3,0,0,1,0,130.6 a65.3,65.3,0,0,1,0,-130.6" transform="translate(-0.5,-0.5)"/></g><g stroke="#000000" stroke-opacity="0.15" fill="none"><path d=" M0,-96.6  a96.6,96.6,0,0,1,0,193.2 a96.6,96.6,0,0,1,0,-193.2" transform="translate(-0.5,-0.5)"/></g><g stroke="#000000" stroke-opacity="0.15" fill="none"><path d=" M0,-127.8  a127.8,127.8,0,0,1,0,255.6 a127.8,127.8,0,0,1,0,-255.6" transform="translate(-0.5,-0.5)"/></g><g stroke="#000000" stroke-opacity="0.15" fill="none"><path d=" M0,-159  a159,159,0,0,1,0,318 a159,159,0,0,1,0,-318" transform="translate(-0.5,-0.5)"/></g><g stroke="#000000" stroke-opacity="0.15" fill="none"><path d=" M0,-190.3  a190.3,190.3,0,0,1,0,380.6 a190.3,190.3,0,0,1,0,-380.6" transform="translate(-0.5,-0.5)"/></g><g stroke="#000000" stroke-opacity="0.15" fill="none"><path d=" M0,-221.5  a221.5,221.5,0,0,1,0,443 a221.5,221.5,0,0,1,0,-443" transform="translate(-0.5,-0.5)"/></g><g stroke="#000000" stroke-opacity="0.15" fill="none"><path d=" M0,-252.8  a252.8,252.8,0,0,1,0,505.6 a252.8,252.8,0,0,1,0,-505.6" transform="translate(-0.5,-0.5)"/></g><g stroke="#000000" stroke-opacity="0.15" fill="none"><path d=" M0,-284  a284,284,0,0,1,0,568 a284,284,0,0,1,0,-568" transform="translate(-0.5,-0.5)"/></g><g stroke="#000000" stroke-opacity="0.15" fill="none" display="none"><path d=" M0,-315.2  a315.2,315.2,0,0,1,0,630.4 a315.2,315.2,0,0,1,0,-630.4" transform="translate(-0.5,-0.5)"/></g></g></g><g><g/></g><g fill="#000000" display="none"><g transform="translate(-7,-11.5)" style="user-select: none;"><text x="0" y="22.5" dy="-6.075"><tspan>-1</tspan></text></g></g><g fill="#000000" display="none"><g transform="translate(-5.5,-11.5)" style="user-select: none;"><text x="0" y="22.5" dy="-6.075"><tspan>0</tspan></text></g></g><g fill="#000000" transform="translate(0,-2.8)"><g transform="translate(-3,-11.5)" style="user-select: none;"><text x="0" y="22.5" dy="-6.075"><tspan>1</tspan></text></g></g><g fill="#000000" transform="translate(0,-34.1)"><g transform="translate(-5,-11.5)" style="user-select: none;"><text x="0" y="22.5" dy="-6.075"><tspan>2</tspan></text></g></g><g fill="#000000" transform="translate(0,-65.3)"><g transform="translate(-5,-11.5)" style="user-select: none;"><text x="0" y="22.5" dy="-6.075"><tspan>3</tspan></text></g></g><g fill="#000000" transform="translate(0,-96.6)"><g transform="translate(-5.5,-11.5)" style="user-select: none;"><text x="0" y="22.5" dy="-6.075"><tspan>4</tspan></text></g></g><g fill="#000000" transform="translate(0,-127.8)"><g transform="translate(-5.5,-11.5)" style="user-select: none;"><text x="0" y="22.5" dy="-6.075"><tspan>5</tspan></text></g></g><g fill="#000000" transform="translate(0,-159)"><g transform="translate(-5.5,-11.5)" style="user-select: none;"><text x="0" y="22.5" dy="-6.075"><tspan>6</tspan></text></g></g><g fill="#000000" transform="translate(0,-190.3)"><g transform="translate(-4.5,-11.5)" style="user-select: none;"><text x="0" y="22.5" dy="-6.075"><tspan>7</tspan></text></g></g><g fill="#000000" transform="translate(0,-221.5)"><g transform="translate(-5.5,-11.5)" style="user-select: none;"><text x="0" y="22.5" dy="-6.075"><tspan>8</tspan></text></g></g><g fill="#000000" transform="translate(0,-252.8)"><g transform="translate(-5.5,-11.5)" style="user-select: none;"><text x="0" y="22.5" dy="-6.075"><tspan>9</tspan></text></g></g><g fill="#000000" transform="translate(0,-284)"><g transform="translate(-8,-11.5)" style="user-select: none;"><text x="0" y="22.5" dy="-6.075"><tspan>10</tspan></text></g></g><g fill="#000000" transform="translate(0,-315.2)" display="none"><g transform="translate(-5.5,-11.5)" style="user-select: none;"><text x="0" y="22.5" dy="-6.075"><tspan>11</tspan></text></g></g></g></g><g fill="#000000" transform="translate(0,-140.6) rotate(90)"><g display="none"/></g><g stroke="#000000" stroke-opacity="0.15" fill="none"><path transform="translate(-0.5,-0.5)"/></g><g stroke="#000000" stroke-opacity="0" fill="none" style="pointer-events: none;"><path d=" M0,-2.84  L0,-284 " transform="translate(-0.5,-0.5)"/></g></g></g><g><g><g role="group" stroke-opacity="1" fill-opacity="0" stroke="#3366ff" stroke-width="3" aria-label="Series"><g><g clip-path="url(#id-361)"><g><g><g><g fill="#3366ff" fill-opacity="0" stroke="#773815" stroke-opacity="1" stroke-width="3" style="pointer-events: none;"><g><g stroke-opacity="0"><path/></g><g fill="none" fill-opacity="0"><path d=" M46.0358,-202.7909  M46.2358,-202.5909  L46.2358,-202.5909  L46.2358,-202.5909  L0,0  L46.2358,-202.5909 "/></g></g></g><g fill="#3366ff" fill-opacity="0" stroke="#ffffff" stroke-opacity="1" stroke-width="3" style="pointer-events: none;"><g><g stroke-opacity="0"><path/></g><g fill="none" fill-opacity="0"><path d=" M-0.2,-0.2  M0,0  L0,0  L147.8248,-185.3759  L0,0 "/></g></g></g><g fill="#3366ff" fill-opacity="0" stroke="#773815" stroke-opacity="1" stroke-width="3" style="pointer-events: none;"><g><g stroke-opacity="0"><path/></g><g fill="none" fill-opacity="0"><path d=" M147.6248,-185.5759  M147.8248,-185.3759  L147.8248,-185.3759  L147.8248,-185.3759  L0,0  L147.8248,-185.3759 "/></g></g></g><g fill="#3366ff" fill-opacity="0" stroke="#ffffff" stroke-opacity="1" stroke-width="3" style="pointer-events: none;"><g><g stroke-opacity="0"><path/></g><g fill="none" fill-opacity="0"><path d=" M-0.2,-0.2  M0,0  L0,0  L213.6184,-102.8765  L0,0 "/></g></g></g><g fill="#3366ff" fill-opacity="0" stroke="#773815" stroke-opacity="1" stroke-width="3" style="pointer-events: none;"><g><g stroke-opacity="0"><path/></g><g fill="none" fill-opacity="0"><path d=" M213.4184,-103.0765  M213.6184,-102.8765  L213.6184,-102.8765  L213.6184,-102.8765  L0,0  L213.6184,-102.8765 "/></g></g></g><g fill="#3366ff" fill-opacity="0" stroke="#ffffff" stroke-opacity="1" stroke-width="3" style="pointer-events: none;"><g><g stroke-opacity="0"><path/></g><g fill="none" fill-opacity="0"><path d=" M-0.2,-0.2  M0,0  L0,0  L243.1,0  L0,0 "/></g></g></g><g fill="#3366ff" fill-opacity="0" stroke="#773815" stroke-opacity="1" stroke-width="3" style="pointer-events: none;"><g><g stroke-opacity="0"><path/></g><g fill="none" fill-opacity="0"><path d=" M242.9,-0.2  M243.1,0  L243.1,0  L243.1,0  L0,0  L243.1,0 "/></g></g></g><g fill="#3366ff" fill-opacity="0" stroke="#ffffff" stroke-opacity="1" stroke-width="3" style="pointer-events: none;"><g><g stroke-opacity="0"><path/></g><g fill="none" fill-opacity="0"><path d=" M-0.2,-0.2  M0,0  L0,0  L197.311,95.023  L0,0 "/></g></g></g><g fill="#3366ff" fill-opacity="0" stroke="#b8f2a8" stroke-opacity="1" stroke-width="3" style="pointer-events: none;"><g><g stroke-opacity="0"><path/></g><g fill="none" fill-opacity="0"><path d=" M197.111,94.823  M197.311,95.023  L197.311,95.023  L197.311,95.023  L0,0  L197.311,95.023 "/></g></g></g><g fill="#3366ff" fill-opacity="0" stroke="#ffffff" stroke-opacity="1" stroke-width="3" style="pointer-events: none;"><g><g stroke-opacity="0"><path/></g><g fill="none" fill-opacity="0"><path d=" M-0.2,-0.2  M0,0  L0,0  L159.172,199.6055  L0,0 "/></g></g></g><g fill="#3366ff" fill-opacity="0" stroke="#b8f2a8" stroke-opacity="1" stroke-width="3" style="pointer-events: none;"><g><g stroke-opacity="0"><path/></g><g fill="none" fill-opacity="0"><path d=" M158.972,199.4055  M159.172,199.6055  L159.172,199.6055  L159.172,199.6055  L0,0  L159.172,199.6055 "/></g></g></g><g fill="#3366ff" fill-opacity="0" stroke="#ffffff" stroke-opacity="1" stroke-width="3" style="pointer-events: none;"><g><g stroke-opacity="0"><path/></g><g fill="none" fill-opacity="0"><path d=" M-0.2,-0.2  M0,0  L0,0  L56.8046,248.9002  L0,0 "/></g></g></g><g fill="#3366ff" fill-opacity="0" stroke="#b8f2a8" stroke-opacity="1" stroke-width="3" style="pointer-events: none;"><g><g stroke-opacity="0"><path/></g><g fill="none" fill-opacity="0"><path d=" M56.6046,248.7002  M56.8046,248.9002  L56.8046,248.9002  L56.8046,248.9002  L0,0  L56.8046,248.9002 "/></g></g></g><g fill="#3366ff" fill-opacity="0" stroke="#ffffff" stroke-opacity="1" stroke-width="3" style="pointer-events: none;"><g><g stroke-opacity="0"><path/></g><g fill="none" fill-opacity="0"><path d=" M-0.2,-0.2  M0,0  L0,0  L-53.7341,235.4462  L0,0 "/></g></g></g><g fill="#3366ff" fill-opacity="0" stroke="#b8f2a8" stroke-opacity="1" stroke-width="3" style="pointer-events: none;"><g><g stroke-opacity="0"><path/></g><g fill="none" fill-opacity="0"><path d=" M-53.9341,235.2462  M-53.7341,235.4462  L-53.7341,235.4462  L-53.7341,235.4462  L0,0  L-53.7341,235.4462 "/></g></g></g><g fill="#3366ff" fill-opacity="0" stroke="#ffffff" stroke-opacity="1" stroke-width="3" style="pointer-events: none;"><g><g stroke-opacity="0"><path/></g><g fill="none" fill-opacity="0"><path d=" M-0.2,-0.2  M0,0  L0,0  L-167.3394,209.8477  L0,0 "/></g></g></g><g fill="#3366ff" fill-opacity="0" stroke="#b8f2a8" stroke-opacity="1" stroke-width="3" style="pointer-events: none;"><g><g stroke-opacity="0"><path/></g><g fill="none" fill-opacity="0"><path d=" M-167.5394,209.6477  M-167.3394,209.8477  L-167.3394,209.8477  L-167.3394,209.8477  L0,0  L-167.3394,209.8477 "/></g></g></g><g fill="#3366ff" fill-opacity="0" stroke="#ffffff" stroke-opacity="1" stroke-width="3" style="pointer-events: none;"><g><g stroke-opacity="0"><path/></g><g fill="none" fill-opacity="0"><path d=" M-0.2,-0.2  M0,0  L0,0  L-231.6377,111.5544  L0,0 "/></g></g></g><g fill="#3366ff" fill-opacity="0" stroke="#b8f2a8" stroke-opacity="1" stroke-width="3" style="pointer-events: none;"><g><g stroke-opacity="0"><path/></g><g fill="none" fill-opacity="0"><path d=" M-231.8377,111.3544  M-231.6377,111.5544  L-231.6377,111.5544  L-231.6377,111.5544  L0,0  L-231.6377,111.5544 "/></g></g></g><g fill="#3366ff" fill-opacity="0" stroke="#ffffff" stroke-opacity="1" stroke-width="3" style="pointer-events: none;"><g><g stroke-opacity="0"><path/></g><g fill="none" fill-opacity="0"><path d=" M-0.2,-0.2  M0,0  L0,0  L-248.7,0  L0,0 "/></g></g></g><g fill="#3366ff" fill-opacity="0" stroke="#d74de6" stroke-opacity="1" stroke-width="3" style="pointer-events: none;"><g><g stroke-opacity="0"><path/></g><g fill="none" fill-opacity="0"><path d=" M-248.9,-0.2  M-248.7,0  L-248.7,0  L-248.7,0  L0,0  L-248.7,0 "/></g></g></g><g fill="#3366ff" fill-opacity="0" stroke="#ffffff" stroke-opacity="1" stroke-width="3" style="pointer-events: none;"><g><g stroke-opacity="0"><path/></g><g fill="none" fill-opacity="0"><path d=" M-0.2,-0.2  M0,0  L0,0  L-219.0242,-105.4799  L0,0 "/></g></g></g><g fill="#3366ff" fill-opacity="0" stroke="#d74de6" stroke-opacity="1" stroke-width="3" style="pointer-events: none;"><g><g stroke-opacity="0"><path/></g><g fill="none" fill-opacity="0"><path d=" M-219.2242,-105.6799  M-219.0242,-105.4799  L-219.0242,-105.4799  L-219.0242,-105.4799  L0,0  L-219.0242,-105.4799 "/></g></g></g><g fill="#3366ff" fill-opacity="0" stroke="#ffffff" stroke-opacity="1" stroke-width="3" style="pointer-events: none;"><g><g stroke-opacity="0"><path/></g><g fill="none" fill-opacity="0"><path d=" M-0.2,-0.2  M0,0  L0,0  L-144.9568,-181.7794  L0,0 "/></g></g></g><g fill="#3366ff" fill-opacity="0" stroke="#0000ff" stroke-opacity="1" stroke-width="3" style="pointer-events: none;"><g><g stroke-opacity="0"><path/></g><g fill="none" fill-opacity="0"><path d=" M-145.1568,-181.9794  M-144.9568,-181.7794  L-144.9568,-181.7794  L-144.9568,-181.7794  L0,0  L-144.9568,-181.7794 "/></g></g></g><g fill="#3366ff" fill-opacity="0" stroke="#ffffff" stroke-opacity="1" stroke-width="3" style="pointer-events: none;"><g><g stroke-opacity="0"><path/></g><g fill="none" fill-opacity="0"><path d=" M-0.2,-0.2  M0,0  L0,0  L-56.2484,-246.4629  L0,0 "/></g></g></g><g fill="#3366ff" fill-opacity="0" stroke="#0000ff" stroke-opacity="1" stroke-width="3" style="pointer-events: none;"><g><g stroke-opacity="0"><path/></g><g fill="none" fill-opacity="0"><path d=" M-56.4484,-246.6629  M-56.2484,-246.4629  L-56.2484,-246.4629  L-56.2484,-246.4629  L0,0  L-56.2484,-246.4629 "/></g></g></g></g></g></g></g><g/></g></g></g></g><g clip-path="url(#id-450)"><g><g fill="#3366ff" stroke="#3366ff"><g><g opacity="1" transform="translate(46.234,-202.591)"><g><g><circle r="5"/></g></g></g><g opacity="1" fill="#773815" fill-opacity="1" transform="translate(46.234,-202.591)"><g><g stroke-width="0"><circle r="20"/></g></g></g><g opacity="1" fill-opacity="1" transform="translate(46.234,-202.591)"><g><g fill="#ffffff" stroke-opacity="0" font-size="11"><g transform="translate(-11.5,-8)" style="user-select: none;"><text x="0" y="15.5" overflow="hidden" dy="-4.185"><tspan>7.56</tspan></text></g></g></g></g><g opacity="1" transform="translate(0,0)" visibility="hidden"><g><g><circle r="5"/></g></g></g><g opacity="1" fill="#ffffff" fill-opacity="1" transform="translate(0,0)" visibility="hidden"><g><g stroke-width="0"><circle r="10"/></g></g></g><g opacity="1" fill-opacity="1" transform="translate(0,0)" visibility="hidden"><g><g fill="#ffffff" stroke-opacity="0" font-size="11"><g transform="translate(-3.5,-8)" style="user-select: none;"><text x="0" y="15.5" overflow="hidden" dy="-4.185"><tspan>0</tspan></text></g></g></g></g><g opacity="1" transform="translate(147.826,-185.375)"><g><g><circle r="5"/></g></g></g><g opacity="1" fill="#773815" fill-opacity="1" transform="translate(147.826,-185.375)"><g><g stroke-width="0"><circle r="20"/></g></g></g><g opacity="1" fill-opacity="1" transform="translate(147.826,-185.375)"><g><g fill="#ffffff" stroke-opacity="0" font-size="11"><g transform="translate(-8.5,-8)" style="user-select: none;"><text x="0" y="15.5" overflow="hidden" dy="-4.185"><tspan>8.5</tspan></text></g></g></g></g><g opacity="1" transform="translate(0,0)" visibility="hidden"><g><g><circle r="5"/></g></g></g><g opacity="1" fill="#ffffff" fill-opacity="1" transform="translate(0,0)" visibility="hidden"><g><g stroke-width="0"><circle r="10"/></g></g></g><g opacity="1" fill-opacity="1" transform="translate(0,0)" visibility="hidden"><g><g fill="#ffffff" stroke-opacity="0" font-size="11"><g transform="translate(-3.5,-8)" style="user-select: none;"><text x="0" y="15.5" overflow="hidden" dy="-4.185"><tspan>0</tspan></text></g></g></g></g><g opacity="1" transform="translate(213.619,-102.876)"><g><g><circle r="5"/></g></g></g><g opacity="1" fill="#773815" fill-opacity="1" transform="translate(213.619,-102.876)"><g><g stroke-width="0"><circle r="20"/></g></g></g><g opacity="1" fill-opacity="1" transform="translate(213.619,-102.876)"><g><g fill="#ffffff" stroke-opacity="0" font-size="11"><g transform="translate(-8.5,-8)" style="user-select: none;"><text x="0" y="15.5" overflow="hidden" dy="-4.185"><tspan>8.5</tspan></text></g></g></g></g><g opacity="1" transform="translate(0,0)" visibility="hidden"><g><g><circle r="5"/></g></g></g><g opacity="1" fill="#ffffff" fill-opacity="1" transform="translate(0,0)" visibility="hidden"><g><g stroke-width="0"><circle r="10"/></g></g></g><g opacity="1" fill-opacity="1" transform="translate(0,0)" visibility="hidden"><g><g fill="#ffffff" stroke-opacity="0" font-size="11"><g transform="translate(-3.5,-8)" style="user-select: none;"><text x="0" y="15.5" overflow="hidden" dy="-4.185"><tspan>0</tspan></text></g></g></g></g><g opacity="1" transform="translate(243.1,0)"><g><g><circle r="5"/></g></g></g><g opacity="1" fill="#773815" fill-opacity="1" transform="translate(243.1,0)"><g><g stroke-width="0"><circle r="20"/></g></g></g><g opacity="1" fill-opacity="1" transform="translate(243.1,0)"><g><g fill="#ffffff" stroke-opacity="0" font-size="11"><g transform="translate(-12,-8)" style="user-select: none;"><text x="0" y="15.5" overflow="hidden" dy="-4.185"><tspan>8.69</tspan></text></g></g></g></g><g opacity="1" transform="translate(0,0)" visibility="hidden"><g><g><circle r="5"/></g></g></g><g opacity="1" fill="#ffffff" fill-opacity="1" transform="translate(0,0)" visibility="hidden"><g><g stroke-width="0"><circle r="10"/></g></g></g><g opacity="1" fill-opacity="1" transform="translate(0,0)" visibility="hidden"><g><g fill="#ffffff" stroke-opacity="0" font-size="11"><g transform="translate(-3.5,-8)" style="user-select: none;"><text x="0" y="15.5" overflow="hidden" dy="-4.185"><tspan>0</tspan></text></g></g></g></g><g opacity="1" transform="translate(197.311,95.022)"><g><g><circle r="5"/></g></g></g><g opacity="1" fill="#b8f2a8" fill-opacity="1" transform="translate(197.311,95.022)"><g><g stroke-width="0"><circle r="20"/></g></g></g><g opacity="1" fill-opacity="1" transform="translate(197.311,95.022)"><g><g fill="#ffffff" stroke-opacity="0" font-size="11"><g transform="translate(-11,-8)" style="user-select: none;"><text x="0" y="15.5" overflow="hidden" dy="-4.185"><tspan>7.92</tspan></text></g></g></g></g><g opacity="1" transform="translate(0,0)" visibility="hidden"><g><g><circle r="5"/></g></g></g><g opacity="1" fill="#ffffff" fill-opacity="1" transform="translate(0,0)" visibility="hidden"><g><g stroke-width="0"><circle r="10"/></g></g></g><g opacity="1" fill-opacity="1" transform="translate(0,0)" visibility="hidden"><g><g fill="#ffffff" stroke-opacity="0" font-size="11"><g transform="translate(-3.5,-8)" style="user-select: none;"><text x="0" y="15.5" overflow="hidden" dy="-4.185"><tspan>0</tspan></text></g></g></g></g><g opacity="1" transform="translate(159.173,199.604)"><g><g><circle r="5"/></g></g></g><g opacity="1" fill="#b8f2a8" fill-opacity="1" transform="translate(159.173,199.604)"><g><g stroke-width="0"><circle r="20"/></g></g></g><g opacity="1" fill-opacity="1" transform="translate(159.173,199.604)"><g><g fill="#ffffff" stroke-opacity="0" font-size="11"><g transform="translate(-12,-8)" style="user-select: none;"><text x="0" y="15.5" overflow="hidden" dy="-4.185"><tspan>9.08</tspan></text></g></g></g></g><g opacity="1" transform="translate(0,0)" visibility="hidden"><g><g><circle r="5"/></g></g></g><g opacity="1" fill="#ffffff" fill-opacity="1" transform="translate(0,0)" visibility="hidden"><g><g stroke-width="0"><circle r="10"/></g></g></g><g opacity="1" fill-opacity="1" transform="translate(0,0)" visibility="hidden"><g><g fill="#ffffff" stroke-opacity="0" font-size="11"><g transform="translate(-3.5,-8)" style="user-select: none;"><text x="0" y="15.5" overflow="hidden" dy="-4.185"><tspan>0</tspan></text></g></g></g></g><g opacity="1" transform="translate(56.803,248.901)"><g><g><circle r="5"/></g></g></g><g opacity="1" fill="#b8f2a8" fill-opacity="1" transform="translate(56.803,248.901)"><g><g stroke-width="0"><circle r="20"/></g></g></g><g opacity="1" fill-opacity="1" transform="translate(56.803,248.901)"><g><g fill="#ffffff" stroke-opacity="0" font-size="11"><g transform="translate(-12,-8)" style="user-select: none;"><text x="0" y="15.5" overflow="hidden" dy="-4.185"><tspan>9.08</tspan></text></g></g></g></g><g opacity="1" transform="translate(0,0)" visibility="hidden"><g><g><circle r="5"/></g></g></g><g opacity="1" fill="#ffffff" fill-opacity="1" transform="translate(0,0)" visibility="hidden"><g><g stroke-width="0"><circle r="10"/></g></g></g><g opacity="1" fill-opacity="1" transform="translate(0,0)" visibility="hidden"><g><g fill="#ffffff" stroke-opacity="0" font-size="11"><g transform="translate(-3.5,-8)" style="user-select: none;"><text x="0" y="15.5" overflow="hidden" dy="-4.185"><tspan>0</tspan></text></g></g></g></g><g opacity="1" transform="translate(-53.732,235.447)"><g><g><circle r="5"/></g></g></g><g opacity="1" fill="#b8f2a8" fill-opacity="1" transform="translate(-53.732,235.447)"><g><g stroke-width="0"><circle r="20"/></g></g></g><g opacity="1" fill-opacity="1" transform="translate(-53.732,235.447)"><g><g fill="#ffffff" stroke-opacity="0" font-size="11"><g transform="translate(-12,-8)" style="user-select: none;"><text x="0" y="15.5" overflow="hidden" dy="-4.185"><tspan>8.64</tspan></text></g></g></g></g><g opacity="1" transform="translate(0,0)" visibility="hidden"><g><g><circle r="5"/></g></g></g><g opacity="1" fill="#ffffff" fill-opacity="1" transform="translate(0,0)" visibility="hidden"><g><g stroke-width="0"><circle r="10"/></g></g></g><g opacity="1" fill-opacity="1" transform="translate(0,0)" visibility="hidden"><g><g fill="#ffffff" stroke-opacity="0" font-size="11"><g transform="translate(-3.5,-8)" style="user-select: none;"><text x="0" y="15.5" overflow="hidden" dy="-4.185"><tspan>0</tspan></text></g></g></g></g><g opacity="1" transform="translate(-167.341,209.847)"><g><g><circle r="5"/></g></g></g><g opacity="1" fill="#b8f2a8" fill-opacity="1" transform="translate(-167.341,209.847)"><g><g stroke-width="0"><circle r="20"/></g></g></g><g opacity="1" fill-opacity="1" transform="translate(-167.341,209.847)"><g><g fill="#ffffff" stroke-opacity="0" font-size="11"><g transform="translate(-8.5,-8)" style="user-select: none;"><text x="0" y="15.5" overflow="hidden" dy="-4.185"><tspan>9.5</tspan></text></g></g></g></g><g opacity="1" transform="translate(0,0)" visibility="hidden"><g><g><circle r="5"/></g></g></g><g opacity="1" fill="#ffffff" fill-opacity="1" transform="translate(0,0)" visibility="hidden"><g><g stroke-width="0"><circle r="10"/></g></g></g><g opacity="1" fill-opacity="1" transform="translate(0,0)" visibility="hidden"><g><g fill="#ffffff" stroke-opacity="0" font-size="11"><g transform="translate(-3.5,-8)" style="user-select: none;"><text x="0" y="15.5" overflow="hidden" dy="-4.185"><tspan>0</tspan></text></g></g></g></g><g opacity="1" transform="translate(-231.638,111.554)"><g><g><circle r="5"/></g></g></g><g opacity="1" fill="#b8f2a8" fill-opacity="1" transform="translate(-231.638,111.554)"><g><g stroke-width="0"><circle r="20"/></g></g></g><g opacity="1" fill-opacity="1" transform="translate(-231.638,111.554)"><g><g fill="#ffffff" stroke-opacity="0" font-size="11"><g transform="translate(-10,-8)" style="user-select: none;"><text x="0" y="15.5" overflow="hidden" dy="-4.185"><tspan>9.14</tspan></text></g></g></g></g><g opacity="1" transform="translate(0,0)" visibility="hidden"><g><g><circle r="5"/></g></g></g><g opacity="1" fill="#ffffff" fill-opacity="1" transform="translate(0,0)" visibility="hidden"><g><g stroke-width="0"><circle r="10"/></g></g></g><g opacity="1" fill-opacity="1" transform="translate(0,0)" visibility="hidden"><g><g fill="#ffffff" stroke-opacity="0" font-size="11"><g transform="translate(-3.5,-8)" style="user-select: none;"><text x="0" y="15.5" overflow="hidden" dy="-4.185"><tspan>0</tspan></text></g></g></g></g><g opacity="1" transform="translate(-248.7,0)"><g><g><circle r="5"/></g></g></g><g opacity="1" fill="#d74de6" fill-opacity="1" transform="translate(-248.7,0)"><g><g stroke-width="0"><circle r="20"/></g></g></g><g opacity="1" fill-opacity="1" transform="translate(-248.7,0)"><g><g fill="#ffffff" stroke-opacity="0" font-size="11"><g transform="translate(-11.5,-8)" style="user-select: none;"><text x="0" y="15.5" overflow="hidden" dy="-4.185"><tspan>8.87</tspan></text></g></g></g></g><g opacity="1" transform="translate(0,0)" visibility="hidden"><g><g><circle r="5"/></g></g></g><g opacity="1" fill="#ffffff" fill-opacity="1" transform="translate(0,0)" visibility="hidden"><g><g stroke-width="0"><circle r="10"/></g></g></g><g opacity="1" fill-opacity="1" transform="translate(0,0)" visibility="hidden"><g><g fill="#ffffff" stroke-opacity="0" font-size="11"><g transform="translate(-3.5,-8)" style="user-select: none;"><text x="0" y="15.5" overflow="hidden" dy="-4.185"><tspan>0</tspan></text></g></g></g></g><g opacity="1" transform="translate(-219.025,-105.479)"><g><g><circle r="5"/></g></g></g><g opacity="1" fill="#d74de6" fill-opacity="1" transform="translate(-219.025,-105.479)"><g><g stroke-width="0"><circle r="20"/></g></g></g><g opacity="1" fill-opacity="1" transform="translate(-219.025,-105.479)"><g><g fill="#ffffff" stroke-opacity="0" font-size="11"><g transform="translate(-12,-8)" style="user-select: none;"><text x="0" y="15.5" overflow="hidden" dy="-4.185"><tspan>8.69</tspan></text></g></g></g></g><g opacity="1" transform="translate(0,0)" visibility="hidden"><g><g><circle r="5"/></g></g></g><g opacity="1" fill="#ffffff" fill-opacity="1" transform="translate(0,0)" visibility="hidden"><g><g stroke-width="0"><circle r="10"/></g></g></g><g opacity="1" fill-opacity="1" transform="translate(0,0)" visibility="hidden"><g><g fill="#ffffff" stroke-opacity="0" font-size="11"><g transform="translate(-3.5,-8)" style="user-select: none;"><text x="0" y="15.5" overflow="hidden" dy="-4.185"><tspan>0</tspan></text></g></g></g></g><g opacity="1" transform="translate(-144.958,-181.778)"><g><g><circle r="5"/></g></g></g><g opacity="1" fill="#0000ff" fill-opacity="1" transform="translate(-144.958,-181.778)"><g><g stroke-width="0"><circle r="20"/></g></g></g><g opacity="1" fill-opacity="1" transform="translate(-144.958,-181.778)"><g><g fill="#ffffff" stroke-opacity="0" font-size="11"><g transform="translate(-11.5,-8)" style="user-select: none;"><text x="0" y="15.5" overflow="hidden" dy="-4.185"><tspan>8.35</tspan></text></g></g></g></g><g opacity="1" transform="translate(0,0)" visibility="hidden"><g><g><circle r="5"/></g></g></g><g opacity="1" fill="#ffffff" fill-opacity="1" transform="translate(0,0)" visibility="hidden"><g><g stroke-width="0"><circle r="10"/></g></g></g><g opacity="1" fill-opacity="1" transform="translate(0,0)" visibility="hidden"><g><g fill="#ffffff" stroke-opacity="0" font-size="11"><g transform="translate(-3.5,-8)" style="user-select: none;"><text x="0" y="15.5" overflow="hidden" dy="-4.185"><tspan>0</tspan></text></g></g></g></g><g opacity="1" transform="translate(-56.247,-246.463)"><g><g><circle r="5"/></g></g></g><g opacity="1" fill="#0000ff" fill-opacity="1" transform="translate(-56.247,-246.463)"><g><g stroke-width="0"><circle r="20"/></g></g></g><g opacity="1" fill-opacity="1" transform="translate(-56.247,-246.463)"><g><g fill="#ffffff" stroke-opacity="0" font-size="11"><g transform="translate(-3.5,-8)" style="user-select: none;"><text x="0" y="15.5" overflow="hidden" dy="-4.185"><tspan>9</tspan></text></g></g></g></g><g opacity="1" transform="translate(0,0)" visibility="hidden"><g><g><circle r="5"/></g></g></g><g opacity="1" fill="#ffffff" fill-opacity="1" transform="translate(0,0)" visibility="hidden"><g><g stroke-width="0"><circle r="10"/></g></g></g><g opacity="1" fill-opacity="1" transform="translate(0,0)" visibility="hidden"><g><g fill="#ffffff" stroke-opacity="0" font-size="11"><g transform="translate(-3.5,-8)" style="user-select: none;"><text x="0" y="15.5" overflow="hidden" dy="-4.185"><tspan>0</tspan></text></g></g></g></g></g></g></g></g><g opacity="0" visibility="hidden" aria-hidden="true" style="touch-action: none; user-select: none; -webkit-user-drag: none;"><g><g fill-opacity="0.2" fill="#000000" visibility="hidden" style="pointer-events: none;"><path/></g><g stroke="#000000" fill="#000000" stroke-dasharray="3,3" stroke-opacity="0" fill-opacity="0.1" style="pointer-events: none;"><path d=" M0,0  L167.3908,-229.4261 "/></g><g stroke="#000000" fill="none" stroke-dasharray="3,3" stroke-opacity="0.4" display="none" style="pointer-events: none;"><path d=" M0,-284  a284,284,0,0,1,0,568 a284,284,0,0,1,0,-568"/></g></g></g></g></g><g><g/></g><g role="button" focusable="true" tabindex="0" opacity="0" visibility="hidden" aria-hidden="true" transform="translate(0,-3)" aria-labelledby="id-216-title"><g fill="#478fca" stroke="#ffffff" fill-opacity="0.4" stroke-opacity="0" transform="translate(0,8)"><path d="M5,0 L30,0 a5,5 0 0 1 5,5 L35,29 a5,5 0 0 1 -5,5 L5,34 a5,5 0 0 1 -5,-5 L0,5 a5,5 0 0 1 5,-5 Z"/></g><g transform="translate(9,9)"><g stroke="#ffffff" stroke-width="2" style="pointer-events: none;" transform="translate(0,8)"><path d=" M0,0  L11,0 " transform="translate(2.5,7.5)"/></g><g fill="#000000" style="pointer-events: none;" transform="translate(17,8)"><g display="none"/></g></g><title id="id-216-title">Zoom Out</title></g></g></g><g><g/></g><g transform="translate(750,0)"><g/></g></g></g><g><g/></g><g transform="translate(0,710)"><g/></g></g></g></g></g></g></g><g><g><g role="tooltip" visibility="hidden" opacity="0"><g fill="#ffffff" fill-opacity="0.9" stroke-width="1" stroke-opacity="1" stroke="#ffffff" filter="url(#filter-id-232)" style="pointer-events: none;" transform="translate(0,6)"><path d="M3,0 L3,0 L0,-6 L13,0 L21,0 a3,3 0 0 1 3,3 L24,8 a3,3 0 0 1 -3,3 L3,11 a3,3 0 0 1 -3,-3 L0,3 a3,3 0 0 1 3,-3"/></g><g><g fill="#ffffff" style="pointer-events: none;" transform="translate(12,6)"><g transform="translate(0,7)" display="none"/></g></g></g><g visibility="hidden" display="none" style="pointer-events: none;"><g fill="#ffffff" opacity="1"><rect width="750" height="750"/></g><g><g transform="translate(375,375)"><g><g stroke-opacity="1" fill="#f3f3f3" fill-opacity="0.8"><g><g><path d=" M53,0  a53,53,0,0,1,-106,0 a53,53,0,0,1,106,0 M42,0  a42,42,0,0,0,-84,0 a42,42,0,0,0,84,0 L42,0 "/></g></g></g><g stroke-opacity="1" fill="#000000" fill-opacity="0.2"><g><g><path d=" M50,0  a50,50,0,0,1,-100,0 a50,50,0,0,1,100,0 M45,0  a45,45,0,0,0,-90,0 a45,45,0,0,0,90,0 L45,0 "/></g></g></g><g fill="#000000" fill-opacity="0.4"><g transform="translate(-19,-11.5)" style="user-select: none;"><text x="19px" y="22.5" dy="-6.075" text-anchor="middle"><tspan>100%</tspan></text></g></g></g></g></g></g><g role="tooltip" visibility="hidden" opacity="0" transform="translate(174.18167414302053,174.1816741430205)"><g fill="#000000" fill-opacity="1" stroke-width="1" stroke-opacity="1" stroke="#000000" style="pointer-events: none;" transform="translate(-10,-15)"><path d="M0,0 L20,0 a0,0 0 0 1 0,0 L20,10 a0,0 0 0 1 -0,0 L20,10 L15,10 L10,15 L5,10 L0,10 a0,0 0 0 1 -0,-0 L0,0 a0,0 0 0 1 0,-0"/></g><g><g fill="#ffffff" style="pointer-events: none;" transform="translate(0,-15)"><g transform="translate(0,5)" display="none"/></g></g></g><g role="tooltip" visibility="hidden" opacity="0"><g fill="#000000" fill-opacity="1" stroke-width="1" stroke-opacity="1" stroke="#000000" style="pointer-events: none;" transform="translate(5,-5)"><path d="M0,0 L20,0 a0,0 0 0 1 0,0 L20,10 a0,0 0 0 1 -0,0 L0,10 a0,0 0 0 1 -0,-0 L0,10 L0,10 L-5,5 L0,0 L0,0 a0,0 0 0 1 0,-0"/></g><g><g fill="#ffffff" style="pointer-events: none;" transform="translate(15,-5)"><g transform="translate(0,5)" display="none"/></g></g></g><g role="tooltip" visibility="hidden" opacity="0"><g fill="#ffffff" fill-opacity="1" stroke-width="1" stroke-opacity="1" stroke="#ffffff" filter="url(#filter-id-366)" style="pointer-events: none;" transform="translate(0,6)"><path/></g><g><g fill="#ffffff" style="pointer-events: none;" transform="translate(0,6)"><g transform="translate(0,0)" display="none"/></g></g></g></g></g></g></g></svg>